<svg xmlns="http://www.w3.org/2000/svg" viewBox="0 0 1600 900" role="img" aria-label="Creative travel cover with road and mountains">
  <defs>
    <linearGradient id="sky" x1="0" x2="0" y1="0" y2="1">
      <stop offset="0%" stop-color="#031f34"/>
      <stop offset="45%" stop-color="#0b4f73"/>
      <stop offset="100%" stop-color="#27a6a0"/>
    </linearGradient>
    <linearGradient id="ground" x1="0" x2="0" y1="0" y2="1">
      <stop offset="0%" stop-color="#0f5f70"/>
      <stop offset="100%" stop-color="#0a3345"/>
    </linearGradient>
    <linearGradient id="road" x1="0" x2="1" y1="0" y2="0">
      <stop offset="0%" stop-color="#f6c667"/>
      <stop offset="100%" stop-color="#f59d3d"/>
    </linearGradient>
    <radialGradient id="sun" cx="50%" cy="45%" r="45%">
      <stop offset="0%" stop-color="#ffe7a4" stop-opacity="1"/>
      <stop offset="100%" stop-color="#ffe7a4" stop-opacity="0"/>
    </radialGradient>
  </defs>

  <rect width="1600" height="900" fill="url(#sky)"/>
  <circle cx="1180" cy="250" r="240" fill="url(#sun)"/>

  <path d="M0 540 L220 360 L430 520 L680 320 L910 500 L1140 340 L1380 520 L1600 390 L1600 900 L0 900 Z" fill="#0b3f59" opacity="0.85"/>
  <path d="M0 620 L190 500 L420 640 L700 460 L980 650 L1240 470 L1600 650 L1600 900 L0 900 Z" fill="#0c4d66" opacity="0.9"/>
  <path d="M0 700 C310 620 550 710 850 640 C1100 580 1330 680 1600 620 L1600 900 L0 900 Z" fill="url(#ground)"/>

  <path d="M250 900 C460 760 630 740 860 900 Z" fill="url(#road)" opacity="0.9"/>
  <path d="M570 900 C640 835 705 810 785 900 Z" fill="#fff4d8" opacity="0.85"/>

  <g transform="translate(760 690)" fill="#0b1d2a">
    <circle cx="-45" cy="70" r="34" fill="#0b1d2a"/>
    <circle cx="70" cy="70" r="34" fill="#0b1d2a"/>
    <path d="M-30 35 L30 20 L90 45 L80 60 L20 55 L-25 70 Z"/>
    <path d="M-8 18 L12 -10 L45 6 L26 28 Z"/>
  </g>

  <g opacity="0.22" fill="#d6f3ff">
    <circle cx="210" cy="160" r="2"/>
    <circle cx="280" cy="120" r="2"/>
    <circle cx="390" cy="200" r="2"/>
    <circle cx="540" cy="150" r="2"/>
    <circle cx="690" cy="220" r="2"/>
    <circle cx="860" cy="140" r="2"/>
    <circle cx="980" cy="190" r="2"/>
    <circle cx="1110" cy="120" r="2"/>
    <circle cx="1240" cy="190" r="2"/>
    <circle cx="1330" cy="140" r="2"/>
  </g>
</svg>
